<svg xmlns="http://www.w3.org/2000/svg" xmlns:xlink="http://www.w3.org/1999/xlink" width="1024" zoomAndPan="magnify" viewBox="0 0 768 576" height="768" preserveAspectRatio="xMidYMid meet" version="1.0"><defs><clipPath id="c3924b2469"><path d="M 371 57.601562 L 533 57.601562 L 533 242 L 371 242 Z M 371 57.601562 " clip-rule="nonzero"/></clipPath><clipPath id="cff93fb562"><path d="M 193 57.601562 L 367 57.601562 L 367 232 L 193 232 Z M 193 57.601562 " clip-rule="nonzero"/></clipPath><clipPath id="541fe8380a"><path d="M 221 485 L 265 485 L 265 518.101562 L 221 518.101562 Z M 221 485 " clip-rule="nonzero"/></clipPath><clipPath id="c52ea0dfbb"><path d="M 221 492 L 265 492 L 265 518.101562 L 221 518.101562 Z M 221 492 " clip-rule="nonzero"/></clipPath><clipPath id="76f01cf7ed"><path d="M 302 485 L 346 485 L 346 518.101562 L 302 518.101562 Z M 302 485 " clip-rule="nonzero"/></clipPath><clipPath id="8cc464d7d9"><path d="M 302 492 L 346 492 L 346 518.101562 L 302 518.101562 Z M 302 492 " clip-rule="nonzero"/></clipPath></defs><path fill="#5271ff" d="M 363.3125 294.378906 C 363.3125 339.296875 326.898438 375.710938 281.980469 375.710938 C 237.058594 375.710938 200.644531 339.296875 200.644531 294.378906 C 200.644531 249.460938 237.058594 213.042969 281.980469 213.042969 C 326.898438 213.042969 363.3125 249.460938 363.3125 294.378906 Z M 363.3125 294.378906 " fill-opacity="1" fill-rule="nonzero"/><path stroke-linecap="round" transform="matrix(0.426389, 0, 0, 0.426389, 514.268307, 382.324984)" fill-opacity="1" fill="#5271ff" fill-rule="nonzero" stroke-linejoin="round" d="M 74.621156 10.881756 C 74.621156 10.881756 -74.615411 10.881756 -74.615411 10.881756 C -74.615411 10.881756 -74.615411 -10.885346 -74.615411 -10.885346 C -74.615411 -10.885346 74.621156 -10.885346 74.621156 -10.885346 C 74.621156 -10.885346 74.621156 10.881756 74.621156 10.881756 Z M 74.621156 10.881756 " stroke="#38b6ff" stroke-width="2" stroke-opacity="1" stroke-miterlimit="4"/><path stroke-linecap="round" transform="matrix(0.426389, 0, 0, 0.426389, 515.846763, 430.012754)" fill-opacity="1" fill="#5271ff" fill-rule="nonzero" stroke-linejoin="round" d="M 82.160079 7.170821 C 82.160079 7.170821 -82.155886 7.170821 -82.155886 7.170821 C -82.155886 7.170821 -82.155886 -7.175678 -82.155886 -7.175678 C -82.155886 -7.175678 82.160079 -7.175678 82.160079 -7.175678 C 82.160079 -7.175678 82.160079 7.170821 82.160079 7.170821 Z M 82.160079 7.170821 " stroke="#38b6ff" stroke-width="2" stroke-opacity="1" stroke-miterlimit="4"/><path stroke-linecap="round" transform="matrix(0.426389, 0, 0, 0.426389, 515.420379, 458.502337)" fill-opacity="1" fill="#5271ff" fill-rule="nonzero" stroke-linejoin="round" d="M 104.899685 7.17693 C 104.899685 7.17693 -104.892666 7.17693 -104.892666 7.17693 C -104.892666 7.17693 -104.892666 -7.17873 -104.892666 -7.17873 C -104.892666 -7.17873 104.899685 -7.17873 104.899685 -7.17873 C 104.899685 -7.17873 104.899685 7.17693 104.899685 7.17693 Z M 104.899685 7.17693 " stroke="#38b6ff" stroke-width="2" stroke-opacity="1" stroke-miterlimit="4"/><path stroke-linecap="round" transform="matrix(0.426389, 0, 0, 0.426389, 515.109123, 406.959603)" fill-opacity="1" fill="#5271ff" fill-rule="nonzero" stroke-linejoin="round" d="M 56.342206 7.176379 C 56.342206 7.176379 -56.341022 7.176379 -56.341022 7.176379 C -56.341022 7.176379 -56.341022 -7.179281 -56.341022 -7.179281 C -56.341022 -7.179281 56.342206 -7.179281 56.342206 -7.179281 C 56.342206 -7.179281 56.342206 7.176379 56.342206 7.176379 Z M 56.342206 7.176379 " stroke="#38b6ff" stroke-width="2" stroke-opacity="1" stroke-miterlimit="4"/><path stroke-linecap="round" transform="matrix(0.426389, 0, 0, 0.426389, 477.047932, 447.013297)" fill-opacity="1" fill="#5271ff" fill-rule="nonzero" stroke-linejoin="round" d="M -34.741894 140.83201 C -34.741894 140.83201 -55.80358 140.83201 -55.80358 140.83201 C -55.80358 140.83201 34.746097 -140.830253 34.746097 -140.830253 C 34.746097 -140.830253 55.798621 -140.830253 55.798621 -140.830253 C 55.798621 -140.830253 -34.741894 140.83201 -34.741894 140.83201 Z M -34.741894 140.83201 " stroke="#38b6ff" stroke-width="2" stroke-opacity="1" stroke-miterlimit="4"/><path stroke-linecap="round" transform="matrix(0.426389, 0, 0, 0.426389, 553.130593, 447.013297)" fill-opacity="1" fill="#5271ff" fill-rule="nonzero" stroke-linejoin="round" d="M 34.74462 140.83201 C 34.74462 140.83201 55.806306 140.83201 55.806306 140.83201 C 55.806306 140.83201 -34.74337 -140.830253 -34.74337 -140.830253 C -34.74337 -140.830253 -55.805057 -140.830253 -55.805057 -140.830253 C -55.805057 -140.830253 34.74462 140.83201 34.74462 140.83201 Z M 34.74462 140.83201 " stroke="#38b6ff" stroke-width="2" stroke-opacity="1" stroke-miterlimit="4"/><path stroke-linecap="round" transform="matrix(0.426389, 0, 0, 0.426389, 228.75103, 382.324984)" fill-opacity="1" fill="#5271ff" fill-rule="nonzero" stroke-linejoin="round" d="M 74.615869 10.881756 C 74.615869 10.881756 -74.620698 10.881756 -74.620698 10.881756 C -74.620698 10.881756 -74.620698 -10.885346 -74.620698 -10.885346 C -74.620698 -10.885346 74.615869 -10.885346 74.615869 -10.885346 C 74.615869 -10.885346 74.615869 10.881756 74.615869 10.881756 Z M 74.615869 10.881756 " stroke="#38b6ff" stroke-width="2" stroke-opacity="1" stroke-miterlimit="4"/><path stroke-linecap="round" transform="matrix(0.426389, 0, 0, 0.426389, 230.329942, 430.012754)" fill-opacity="1" fill="#5271ff" fill-rule="nonzero" stroke-linejoin="round" d="M 82.162883 7.170821 C 82.162883 7.170821 -82.162243 7.170821 -82.162243 7.170821 C -82.162243 7.170821 -82.162243 -7.175678 -82.162243 -7.175678 C -82.162243 -7.175678 82.162883 -7.175678 82.162883 -7.175678 C 82.162883 -7.175678 82.162883 7.170821 82.162883 7.170821 Z M 82.162883 7.170821 " stroke="#38b6ff" stroke-width="2" stroke-opacity="1" stroke-miterlimit="4"/><path stroke-linecap="round" transform="matrix(0.426389, 0, 0, 0.426389, 229.903145, 458.502337)" fill-opacity="1" fill="#5271ff" fill-rule="nonzero" stroke-linejoin="round" d="M 104.894297 7.17693 C 104.894297 7.17693 -104.898054 7.17693 -104.898054 7.17693 C -104.898054 7.17693 -104.898054 -7.17873 -104.898054 -7.17873 C -104.898054 -7.17873 104.894297 -7.17873 104.894297 -7.17873 C 104.894297 -7.17873 104.894297 7.17693 104.894297 7.17693 Z M 104.894297 7.17693 " stroke="#38b6ff" stroke-width="2" stroke-opacity="1" stroke-miterlimit="4"/><path stroke-linecap="round" transform="matrix(0.426389, 0, 0, 0.426389, 229.591865, 406.959603)" fill-opacity="1" fill="#5271ff" fill-rule="nonzero" stroke-linejoin="round" d="M 56.336874 7.176379 C 56.336874 7.176379 -56.337193 7.176379 -56.337193 7.176379 C -56.337193 7.176379 -56.337193 -7.179281 -56.337193 -7.179281 C -56.337193 -7.179281 56.336874 -7.179281 56.336874 -7.179281 C 56.336874 -7.179281 56.336874 7.176379 56.336874 7.176379 Z M 56.336874 7.176379 " stroke="#38b6ff" stroke-width="2" stroke-opacity="1" stroke-miterlimit="4"/><path stroke-linecap="round" transform="matrix(0.426389, 0, 0, 0.426389, 191.530276, 447.013297)" fill-opacity="1" fill="#5271ff" fill-rule="nonzero" stroke-linejoin="round" d="M -34.746292 140.83201 C -34.746292 140.83201 -55.798816 140.83201 -55.798816 140.83201 C -55.798816 140.83201 34.741699 -140.830253 34.741699 -140.830253 C 34.741699 -140.830253 55.803385 -140.830253 55.803385 -140.830253 C 55.803385 -140.830253 -34.746292 140.83201 -34.746292 140.83201 Z M -34.746292 140.83201 " stroke="#38b6ff" stroke-width="2" stroke-opacity="1" stroke-miterlimit="4"/><path stroke-linecap="round" transform="matrix(0.426389, 0, 0, 0.426389, 267.613407, 447.013297)" fill-opacity="1" fill="#5271ff" fill-rule="nonzero" stroke-linejoin="round" d="M 34.74828 140.83201 C 34.74828 140.83201 55.800805 140.83201 55.800805 140.83201 C 55.800805 140.83201 -34.73971 -140.830253 -34.73971 -140.830253 C -34.73971 -140.830253 -55.801396 -140.830253 -55.801396 -140.830253 C -55.801396 -140.830253 34.74828 140.83201 34.74828 140.83201 Z M 34.74828 140.83201 " stroke="#38b6ff" stroke-width="2" stroke-opacity="1" stroke-miterlimit="4"/><path stroke-linecap="round" transform="matrix(0.426389, -0.0000911349, 0.0000911349, 0.426389, 494.219451, 193.467113)" fill-opacity="1" fill="#ffffff" fill-rule="nonzero" stroke-linejoin="miter" d="M 17.930727 24.944562 C 17.930727 24.944562 -24.112617 -6.579083 -24.112617 -6.579083 C -24.112617 -6.579083 -25.768354 -18.030984 -14.03133 -24.94521 C -14.03133 -24.94521 25.767786 5.295382 25.767786 5.295382 " stroke="#38b6ff" stroke-width="2" stroke-opacity="1" stroke-miterlimit="10"/><path stroke-linecap="round" transform="matrix(0.426389, -0.0000911349, 0.0000911349, 0.426389, 474.13126, 176.629889)" fill-opacity="1" fill="#ffffff" fill-rule="nonzero" stroke-linejoin="miter" d="M 18.842885 25.36919 C 18.842885 25.36919 -19.652406 -18.576336 -19.652406 -18.576336 C -19.652406 -18.576336 -16.013942 -25.373197 -16.013942 -25.373197 C -16.013942 -25.373197 19.652669 8.54933 19.652669 8.54933 " stroke="#38b6ff" stroke-width="2" stroke-opacity="1" stroke-miterlimit="10"/><path fill="#ffffff" d="M 471.371094 211.078125 C 471.371094 211.078125 540.371094 142.792969 472.246094 70.386719 C 472.246094 70.386719 454.679688 87.773438 454.679688 87.773438 C 454.679688 87.773438 471.539062 106.375 454.363281 123.246094 C 437.070312 140.234375 418.894531 122.929688 418.894531 122.929688 C 418.894531 122.929688 401.464844 139.917969 401.464844 139.917969 C 401.464844 139.917969 420.277344 159.066406 420.277344 159.066406 C 412.003906 167.511719 411.972656 181.0625 420.296875 189.535156 C 428.617188 198.007812 442.167969 198.21875 450.757812 190.097656 C 450.757812 190.097656 471.371094 211.078125 471.371094 211.078125 Z M 471.371094 211.078125 " fill-opacity="1" fill-rule="nonzero"/><g clip-path="url(#c3924b2469)"><path stroke-linecap="butt" transform="matrix(0.426389, -0.0000710544, 0.0000710544, 0.426389, 470.918428, 140.733031)" fill="none" stroke-linejoin="miter" d="M 1.034133 164.978899 C 1.034133 164.978899 162.884924 4.858268 3.141236 -164.98106 C 3.141236 -164.98106 -38.063646 -124.211256 -38.063646 -124.211256 C -38.063646 -124.211256 1.468987 -80.578853 -38.819569 -41.018179 C -79.383008 -1.182715 -122.003484 -41.774102 -122.003484 -41.774102 C -122.003484 -41.774102 -162.887567 -1.93869 -162.887567 -1.93869 C -162.887567 -1.93869 -118.774529 42.977049 -118.774529 42.977049 C -138.181332 62.780412 -138.259917 94.560734 -118.740631 114.434712 C -99.230506 134.308688 -67.450255 134.808691 -47.301519 115.765835 C -47.301519 115.765835 1.034133 164.978899 1.034133 164.978899 Z M 1.034133 164.978899 " stroke="#38b6ff" stroke-width="5" stroke-opacity="1" stroke-miterlimit="10"/></g><path stroke-linecap="round" transform="matrix(0.426389, 0, 0, 0.426389, 524.044082, 253.554266)" fill-opacity="1" fill="#5271ff" fill-rule="nonzero" stroke-linejoin="round" d="M 12.933057 -30.112001 C 12.933057 -30.112001 50.659035 15.153676 -5.09626 23.856852 C -45.121708 30.104816 -50.664257 -20.831667 -50.664257 -20.831667 C -50.664257 -20.831667 12.933057 -30.112001 12.933057 -30.112001 Z M 12.933057 -30.112001 " stroke="#38b6ff" stroke-width="2" stroke-opacity="1" stroke-miterlimit="4"/><path stroke-linecap="round" transform="matrix(0.426389, 0, 0, 0.426389, 515.269899, 325.286958)" fill-opacity="1" fill="#ffffff" fill-rule="nonzero" stroke-linejoin="miter" d="M 12.22023 -97.56225 C 12.22023 -97.56225 21.848691 99.615076 21.848691 99.615076 C 21.848691 99.615076 5.514204 100.009009 5.514204 100.009009 C 5.514204 100.009009 -21.850414 -100.008301 -21.850414 -100.008301 " stroke="#38b6ff" stroke-width="2" stroke-opacity="1" stroke-miterlimit="10"/><path stroke-linecap="round" transform="matrix(0.426389, 0, 0, 0.426389, 517.652546, 370.658558)" fill-opacity="1" fill="#ffffff" fill-rule="nonzero" stroke-linejoin="miter" d="M -1.21892 -11.026383 C -1.21892 -11.026383 -12.697951 0.443487 -17.617536 3.970564 C -17.617536 3.970564 4.809175 11.024717 15.940079 0.590067 C 15.940079 0.590067 17.616585 3.475857 15.830144 -9.670519 " stroke="#38b6ff" stroke-width="2" stroke-opacity="1" stroke-miterlimit="10"/><path stroke-linecap="round" transform="matrix(0.426389, 0, 0, 0.426389, 516.265058, 372.162866)" fill-opacity="1" fill="#5271ff" fill-rule="nonzero" stroke-linejoin="round" d="M 19.093349 -13.198538 C 19.093349 -13.198538 20.201858 -12.62138 22.986875 -6.391738 C 25.771891 -0.162096 24.095385 2.32976 24.095385 2.32976 C 24.095385 2.32976 26.394855 12.178091 26.394855 12.178091 C 26.394855 12.178091 21.127143 12.178091 21.127143 12.178091 C 21.127143 12.178091 18.791028 4.537619 18.791028 4.537619 C 18.791028 4.537619 12.030034 13.194989 -4.194518 12.947635 C -20.428232 12.700282 -23.936986 12.865184 -23.936986 12.865184 C -23.936986 12.865184 -26.401359 1.166283 -15.847613 0.506674 C 2.364928 -0.638481 20.815661 4.739166 19.093349 -13.198538 Z M 19.093349 -13.198538 " stroke="#38b6ff" stroke-width="2" stroke-opacity="1" stroke-miterlimit="4"/><path stroke-linecap="round" transform="matrix(0.426389, 0, 0, 0.426389, 517.188602, 302.685799)" fill-opacity="1" fill="#5271ff" fill-rule="nonzero" stroke-linejoin="round" d="M -34.082391 -130.726878 C -34.082391 -130.726878 -12.443547 130.725694 -12.443547 130.725694 C -12.443547 130.725694 25.080884 127.729969 25.080884 127.729969 C 25.080884 127.729969 5.301771 -94.091087 5.301771 -94.091087 " stroke="#38b6ff" stroke-width="2" stroke-opacity="1" stroke-miterlimit="4"/><path stroke-linecap="round" transform="matrix(0.426389, -0.0000139019, 0.0000139019, 0.426389, 564.481608, 307.191072)" fill-opacity="1" fill="#ffffff" fill-rule="nonzero" stroke-linejoin="miter" d="M -49.243168 -35.564748 C -49.243168 -35.564748 -23.005717 -25.284983 -23.005717 -25.284983 C -23.005717 -25.284983 58.9125 22.951606 58.9125 22.951606 C 58.9125 22.951606 53.287089 35.566447 53.287089 35.566447 C 53.287089 35.566447 -40.312088 -0.980783 -40.312088 -0.980783 C -40.312088 -0.980783 -58.908922 -15.676015 -58.908922 -15.676015 " stroke="#38b6ff" stroke-width="2" stroke-opacity="1" stroke-miterlimit="10"/><path stroke-linecap="round" transform="matrix(0.426389, -0.0000139019, 0.0000139019, 0.426389, 590.553143, 320.733201)" fill-opacity="1" fill="#ffffff" fill-rule="nonzero" stroke-linejoin="miter" d="M -9.59746 3.18139 C -9.59746 3.18139 3.759307 12.947705 8.110752 17.317758 C 8.110752 17.317758 11.208002 -5.722655 -1.058584 -15.278226 C -1.058584 -15.278226 1.506629 -17.321099 -11.209284 -13.794437 " stroke="#38b6ff" stroke-width="2" stroke-opacity="1" stroke-miterlimit="10"/><path stroke-linecap="round" transform="matrix(0.426389, -0.0000139019, 0.0000139019, 0.426389, 592.869695, 321.727888)" fill-opacity="1" fill="#5271ff" fill-rule="nonzero" stroke-linejoin="round" d="M -16.642164 -16.127431 C -16.642164 -16.127431 -16.266515 -17.300057 -10.577269 -20.881915 C -4.888024 -24.463774 -2.130534 -23.144466 -2.130534 -23.144466 C -2.130534 -23.144466 7.232368 -26.735366 7.232368 -26.735366 C 7.232368 -26.735366 8.139162 -21.550076 8.139162 -21.550076 C 8.139162 -21.550076 0.974965 -18.215619 0.974965 -18.215619 C 0.974965 -18.215619 10.731504 -12.718558 13.296129 3.29537 C 15.869915 19.300137 16.639347 22.735626 16.639347 22.735626 C 16.639347 22.735626 5.480828 26.738723 2.998469 16.441411 C -1.297572 -1.340692 0.828451 -20.240257 -16.642164 -16.127431 Z M -16.642164 -16.127431 " stroke="#38b6ff" stroke-width="2" stroke-opacity="1" stroke-miterlimit="4"/><path stroke-linecap="round" transform="matrix(0.426389, -0.0000139019, 0.0000139019, 0.426389, 546.702625, 288.005017)" fill-opacity="1" fill="#5271ff" fill-rule="nonzero" stroke-linejoin="round" d="M -74.138442 -70.097654 C -74.138442 -70.097654 -29.01334 26.719781 -29.01334 26.719781 C -29.01334 26.719781 63.815741 80.196954 63.815741 80.196954 C 63.815741 80.196954 74.141526 47.409219 74.141526 47.409219 C 74.141526 47.409219 -2.866244 -1.56927 -2.866244 -1.56927 C -2.866244 -1.56927 -28.011279 -80.200995 -28.011279 -80.200995 " stroke="#38b6ff" stroke-width="2" stroke-opacity="1" stroke-miterlimit="4"/><path stroke-linecap="round" transform="matrix(0.426389, -0.0000278039, 0.0000278039, 0.426389, 509.977059, 200.037259)" fill-opacity="1" fill="#ffffff" fill-rule="nonzero" stroke-linejoin="miter" d="M 6.642521 -27.414922 C 6.642521 -27.414922 8.977092 -3.723808 16.790963 6.48232 C 24.595673 16.679287 0.125306 27.414662 -12.232776 20.85441 C -24.600021 14.303318 -15.639194 -3.111611 -15.639194 -3.111611 C -15.639194 -3.111611 -7.631865 -9.349892 -9.24366 -18.291365 " stroke="#38b6ff" stroke-width="2" stroke-opacity="1" stroke-miterlimit="10"/><path stroke-linecap="round" transform="matrix(0.426389, -0.0000278039, 0.0000278039, 0.426389, 513.142251, 221.028613)" fill-opacity="1" fill="#ffffff" fill-rule="nonzero" stroke-linejoin="miter" d="M 3.737656 -56.490927 C 3.737656 -56.490927 -16.655525 -52.415506 -19.101626 -51.646121 C -21.318692 -50.940851 -15.454646 -64.022716 -15.454646 -64.022716 C -15.454646 -64.022716 -40.575607 -51.052041 -32.73657 -5.309469 C -28.578951 18.977244 -23.440572 35.467808 -24.596038 53.103116 C -25.302165 64.023265 40.604084 59.373654 38.525337 46.272948 C 37.664536 40.821955 12.371319 26.079874 26.61087 -19.716226 C 30.523539 -32.303512 22.334391 -47.621636 3.737656 -56.490927 Z M 3.737656 -56.490927 " stroke="#38b6ff" stroke-width="2" stroke-opacity="1" stroke-miterlimit="10"/><path stroke-linecap="round" transform="matrix(0.426389, -0.0000617864, 0.0000617864, 0.426389, 495.315099, 202.218924)" fill-opacity="1" fill="#ffffff" fill-rule="nonzero" stroke-linejoin="miter" d="M 31.231054 18.436529 C 31.231054 18.436529 -28.627344 10.631642 -29.615153 -0.444438 C -31.234086 -18.428183 30.858053 0.425481 30.858053 0.425481 C 30.858053 0.425481 31.231054 18.436529 31.231054 18.436529 Z M 31.231054 18.436529 " stroke="#38b6ff" stroke-width="2" stroke-opacity="1" stroke-miterlimit="10"/><path stroke-linecap="round" transform="matrix(0.426389, -0.0000617864, 0.0000617864, 0.426389, 500.675187, 204.860037)" fill-opacity="1" fill="#ffffff" fill-rule="nonzero" stroke-linejoin="miter" d="M 29.333554 14.651517 C 29.333554 14.651517 -22.545326 6.298112 -22.545326 6.298112 C -22.545326 6.298112 -29.332447 -3.065657 -22.157519 -14.644422 C -22.157519 -14.644422 27.137907 -6.392164 27.137907 -6.392164 " stroke="#38b6ff" stroke-width="2" stroke-opacity="1" stroke-miterlimit="10"/><path stroke-linecap="round" transform="matrix(0.426389, -0.0000617864, 0.0000617864, 0.426389, 476.37538, 199.404518)" fill-opacity="1" fill="#ffffff" fill-rule="nonzero" stroke-linejoin="miter" d="M 27.260873 14.354511 C 27.260873 14.354511 -27.254611 -6.650946 -27.254611 -6.650946 C -27.254611 -6.650946 -27.207688 -14.355541 -27.207688 -14.355541 C -27.207688 -14.355541 20.153965 -0.918303 20.153965 -0.918303 " stroke="#38b6ff" stroke-width="2" stroke-opacity="1" stroke-miterlimit="10"/><path stroke-linecap="round" transform="matrix(0.426389, -0.0000617864, 0.0000617864, 0.426389, 461.059181, 194.444837)" fill-opacity="1" fill="#ffffff" fill-rule="nonzero" stroke-linejoin="miter" d="M 15.096558 -1.480817 C 15.096558 -1.480817 0.686871 -7.969062 0.686871 -7.969062 C 0.686871 -7.969062 -15.098482 -4.242725 -15.098482 -4.242725 C -15.098482 -4.242725 -3.437995 7.961734 14.894007 5.44505 " stroke="#38b6ff" stroke-width="2" stroke-opacity="1" stroke-miterlimit="10"/><path stroke-linecap="round" transform="matrix(0.426389, -0.0000494291, 0.0000494291, 0.426389, 510.498147, 183.10428)" fill-opacity="1" fill="#ffffff" fill-rule="nonzero" stroke-linejoin="round" d="M -16.695797 -6.842593 C -23.082742 6.632848 -18.622919 21.291345 -18.622919 21.291345 C -11.53251 24.654342 10.307899 24.501132 16.694844 11.025692 C 23.08179 -2.45891 21.278403 -14.332084 10.377127 -19.491124 C -0.524147 -24.659326 -10.308851 -20.327195 -16.695797 -6.842593 Z M -16.695797 -6.842593 " stroke="#38b6ff" stroke-width="2" stroke-opacity="1" stroke-miterlimit="4"/><path stroke-linecap="round" transform="matrix(0.426389, -0.0000494291, 0.0000494291, 0.426389, 501.771771, 183.529978)" fill-opacity="1" fill="#ffffff" fill-rule="nonzero" stroke-linejoin="round" d="M 3.59583 -6.180436 C 3.59583 -6.180436 0.874127 0.85508 -1.636161 1.789235 C -3.59675 2.512746 1.862922 6.187035 1.862922 6.187035 " stroke="#38b6ff" stroke-width="2" stroke-opacity="1" stroke-miterlimit="4"/><path stroke-linecap="round" transform="matrix(0.426389, -0.0000494291, 0.0000494291, 0.426389, 513.787947, 184.789832)" fill-opacity="1" fill="#38b6ff" fill-rule="nonzero" stroke-linejoin="miter" d="M -0.452266 -27.421441 C -0.452266 -27.421441 -18.517595 -32.874472 -24.583353 -24.089548 C -30.300928 -15.790129 -26.252076 -12.207616 -20.123563 -9.137891 C -13.99505 -6.077327 -6.253777 -6.30546 -5.915364 -1.541577 C -5.57695 3.222306 -15.886781 32.876038 -12.900069 31.593811 C -9.922518 30.311583 12.659916 30.469942 12.659916 30.469942 C 12.659916 30.469942 30.301321 -21.481394 -0.452266 -27.421441 Z M -0.452266 -27.421441 " stroke="#38b6ff" stroke-width="2" stroke-opacity="1" stroke-miterlimit="10"/><path stroke-linecap="round" transform="matrix(0.426389, 0, 0, 0.426389, 243.701927, 222.070148)" fill-opacity="1" fill="#ffffff" fill-rule="nonzero" stroke-linejoin="miter" d="M -6.19935 -25.962564 C -6.19935 -25.962564 -2.626467 -17.067001 -13.436728 -8.372987 C -24.246988 0.321028 -4.422069 25.963334 9.915268 21.987356 C 24.252606 18.02054 18.554316 -8.32718 18.554316 -8.32718 C 18.554316 -8.32718 8.247923 -7.548475 11.069584 -24.002059 " stroke="#38b6ff" stroke-width="2" stroke-opacity="1" stroke-miterlimit="10"/><path stroke-linecap="round" transform="matrix(0.426389, 0, 0, 0.426389, 238.393394, 273.726748)" fill-opacity="1" fill="#ffffff" fill-rule="nonzero" stroke-linejoin="round" d="M -29.230843 -24.836551 C -29.230843 -24.836551 -51.428523 29.132302 9.072293 21.702538 C 51.424696 16.508116 35.639883 -29.133171 35.639883 -29.133171 C 35.639883 -29.133171 -29.230843 -24.836551 -29.230843 -24.836551 Z M -29.230843 -24.836551 " stroke="#38b6ff" stroke-width="2" stroke-opacity="1" stroke-miterlimit="4"/><path stroke-linecap="round" transform="matrix(0.426389, 0, 0, 0.426389, 246.638047, 339.198315)" fill-opacity="1" fill="#ffffff" fill-rule="nonzero" stroke-linejoin="miter" d="M 8.736707 -75.367387 C 8.736707 -75.367387 6.345624 68.289987 6.345624 68.289987 C 6.345624 68.289987 5.79595 75.298334 -1.056656 75.325817 C -8.046681 75.362462 -8.11081 68.775532 -8.11081 68.775532 C -8.11081 68.775532 -8.733774 -74.43294 -8.733774 -74.43294 C -8.733774 -74.43294 8.736707 -75.367387 8.736707 -75.367387 Z M 8.736707 -75.367387 " stroke="#38b6ff" stroke-width="2" stroke-opacity="1" stroke-miterlimit="10"/><path stroke-linecap="round" transform="matrix(0.426389, 0, 0, 0.426389, 252.148701, 372.531273)" fill-opacity="1" fill="#5271ff" fill-rule="nonzero" stroke-linejoin="miter" d="M -20.979852 -10.572123 C -20.979852 -10.572123 -23.783191 11.05756 -23.783191 11.05756 C -23.783191 11.05756 21.079391 11.05756 21.079391 11.05756 C 21.079391 11.05756 23.781957 5.66159 21.50997 3.975923 C 19.228821 2.290255 -6.010389 -11.057669 -6.010389 -11.057669 C -6.010389 -11.057669 -6.550902 -6.248019 -13.989828 -5.496797 C -20.769144 -4.818866 -20.979852 -10.572123 -20.979852 -10.572123 Z M -20.979852 -10.572123 " stroke="#38b6ff" stroke-width="2" stroke-opacity="1" stroke-miterlimit="10"/><path stroke-linecap="round" transform="matrix(0.426389, 0, 0, 0.426389, 251.898827, 369.283013)" fill-opacity="1" fill="#5271ff" fill-rule="nonzero" stroke-linejoin="miter" d="M -5.992363 -2.26696 C -5.992363 -2.26696 -5.213658 -5.9681 -5.213658 -5.9681 C -5.213658 -5.9681 6.430275 -0.086585 6.54021 2.945785 C 6.650145 5.968993 -6.651973 2.423594 -5.992363 -2.26696 Z M -5.992363 -2.26696 " stroke="#38b6ff" stroke-width="2" stroke-opacity="1" stroke-miterlimit="10"/><path stroke-linecap="round" transform="matrix(0.426389, 0, 0, 0.426389, 246.913936, 316.238532)" fill-opacity="1" fill="#ffffff" fill-rule="nonzero" stroke-linejoin="round" d="M 18.689222 -111.089759 C 18.689222 -111.089759 10.425785 111.088585 10.425785 111.088585 C 10.425785 111.088585 -11.799378 111.088585 -11.799378 111.088585 C -11.799378 111.088585 -18.688629 -79.959873 -18.688629 -79.959873 " stroke="#38b6ff" stroke-width="2" stroke-opacity="1" stroke-miterlimit="4"/><path stroke-linecap="round" transform="matrix(0.426389, 0, 0, 0.426389, 223.655263, 339.436237)" fill-opacity="1" fill="#ffffff" fill-rule="nonzero" stroke-linejoin="miter" d="M -1.417678 -75.366543 C -1.417678 -75.366543 -18.677451 68.29083 -18.677451 68.29083 C -18.677451 68.29083 -19.080545 75.299177 -12.2371 75.326661 C -5.247076 75.363306 -4.285146 68.776376 -4.285146 68.776376 C -4.285146 68.776376 19.085172 -74.432097 19.085172 -74.432097 C 19.085172 -74.432097 -1.417678 -75.366543 -1.417678 -75.366543 Z M -1.417678 -75.366543 " stroke="#38b6ff" stroke-width="2" stroke-opacity="1" stroke-miterlimit="10"/><path stroke-linecap="round" transform="matrix(0.426389, 0, 0, 0.426389, 211.85665, 372.769195)" fill-opacity="1" fill="#5271ff" fill-rule="nonzero" stroke-linejoin="miter" d="M 23.495804 -10.57128 C 23.495804 -10.57128 23.330902 11.049242 23.330902 11.049242 C 23.330902 11.049242 -21.522519 11.049242 -21.522519 11.049242 C -21.522519 11.049242 -23.492186 5.662434 -20.982006 3.976766 C -18.480988 2.291098 8.581309 -11.056825 8.581309 -11.056825 C 8.581309 -11.056825 8.471374 -6.247175 15.809526 -5.495954 C 22.488068 -4.818022 23.495804 -10.57128 23.495804 -10.57128 Z M 23.495804 -10.57128 " stroke="#38b6ff" stroke-width="2" stroke-opacity="1" stroke-miterlimit="10"/><path stroke-linecap="round" transform="matrix(0.426389, 0, 0, 0.426389, 212.759742, 369.521371)" fill-opacity="1" fill="#5271ff" fill-rule="nonzero" stroke-linejoin="miter" d="M 6.875566 -2.267141 C 6.875566 -2.267141 6.60989 -5.968281 6.60989 -5.968281 C 6.60989 -5.968281 -5.849394 -0.0867659 -6.371585 2.945604 C -6.893775 5.968812 6.893888 2.423413 6.875566 -2.267141 Z M 6.875566 -2.267141 " stroke="#38b6ff" stroke-width="2" stroke-opacity="1" stroke-miterlimit="10"/><path stroke-linecap="round" transform="matrix(0.426389, 0, 0, 0.426389, 226.631885, 315.912808)" fill-opacity="1" fill="#ffffff" fill-rule="nonzero" stroke-linejoin="round" d="M 28.878398 -79.195962 C 28.878398 -79.195962 -6.648883 112.411332 -6.648883 112.411332 C -6.648883 112.411332 -28.883208 112.411332 -28.883208 112.411332 C -28.883208 112.411332 -4.596766 -112.405449 -4.596766 -112.405449 " stroke="#38b6ff" stroke-width="2" stroke-opacity="1" stroke-miterlimit="4"/><path stroke-linecap="round" transform="matrix(0.426389, 0, 0, 0.426389, 244.239189, 202.284007)" fill-opacity="1" fill="#ffffff" fill-rule="nonzero" stroke-linejoin="round" d="M 18.741764 -2.241807 C 21.306911 12.91088 12.255607 22.00799 12.255607 22.00799 C 4.147912 23.904366 -16.171714 23.941011 -18.736861 8.788323 C -21.311169 -6.373526 -16.089263 -18.109072 -3.63914 -21.031507 C 8.820143 -23.94478 16.167456 -17.403656 18.741764 -2.241807 Z M 18.741764 -2.241807 " stroke="#38b6ff" stroke-width="2" stroke-opacity="1" stroke-miterlimit="4"/><path stroke-linecap="round" transform="matrix(0.426389, 0, 0, 0.426389, 248.132099, 202.652824)" fill-opacity="1" fill="#ffffff" fill-rule="nonzero" stroke-linejoin="round" d="M -1.482448 -6.505606 C -1.482448 -6.505606 -0.75871 1.272285 1.504116 2.765567 C 3.272235 3.938205 -3.27805 6.503352 -3.27805 6.503352 " stroke="#38b6ff" stroke-width="2" stroke-opacity="1" stroke-miterlimit="4"/><path stroke-linecap="round" transform="matrix(0.426389, 0, 0, 0.426389, 243.169384, 201.478548)" fill-opacity="1" fill="#38b6ff" fill-rule="nonzero" stroke-linejoin="miter" d="M -9.127913 -4.777661 C -9.127913 -4.777661 -9.796683 4.99738 -9.796683 4.99738 C -9.796683 4.99738 -5.060323 4.99738 -5.060323 4.99738 C -5.060323 4.99738 -5.545869 -4.347082 -5.545869 -4.347082 C -5.545869 -4.347082 6.363741 -15.111537 19.281086 -8.002416 C 19.281086 -8.002416 22.377585 -4.044762 25.15344 -9.101765 C 27.938456 -14.158768 27.874327 -19.820413 27.874327 -19.820413 C 27.874327 -19.820413 15.570785 -20.672409 9.286176 -24.043744 C 3.001566 -27.41508 -27.935934 -21.909176 -20.634428 2.752877 C -13.332921 27.41493 -13.516146 20.452389 -13.516146 20.452389 C -13.516146 20.452389 -9.127913 -4.777661 -9.127913 -4.777661 Z M -9.127913 -4.777661 " stroke="#38b6ff" stroke-width="2" stroke-opacity="1" stroke-miterlimit="10"/><path stroke-linecap="round" transform="matrix(0.426389, 0, 0, 0.426389, 237.462149, 203.788298)" fill-opacity="1" fill="#ffffff" fill-rule="nonzero" stroke-linejoin="miter" d="M 3.157787 -4.798696 C 3.157787 -4.798696 -4.235332 -8.618932 -3.209273 0.00179318 C -2.174054 8.622518 4.229652 7.97207 4.229652 7.97207 " stroke="#38b6ff" stroke-width="2" stroke-opacity="1" stroke-miterlimit="10"/><path stroke-linecap="round" transform="matrix(0.426389, 0, 0, 0.426389, 272.869501, 187.790623)" fill-opacity="1" fill="#ffffff" fill-rule="nonzero" stroke-linejoin="round" d="M -3.770694 30.310876 C 10.53916 18.511201 9.989486 -18.830005 9.989486 -18.830005 C 9.989486 -18.830005 12.994372 -26.113189 12.994372 -26.113189 C 12.994372 -26.113189 4.850031 -30.309036 4.850031 -30.309036 C 4.850031 -30.309036 1.854306 -24.812293 -0.0970373 -19.498775 C -4.650173 -7.094459 -12.99606 13.6191 -11.36536 20.627447 " stroke="#38b6ff" stroke-width="2" stroke-opacity="1" stroke-miterlimit="4"/><path stroke-linecap="round" transform="matrix(0.426389, 0, 0, 0.426389, 240.852384, 218.633449)" fill-opacity="1" fill="#ffffff" fill-rule="nonzero" stroke-linejoin="round" d="M -7.624076 -1.961998 C -7.624076 -1.961998 -2.915199 -10.830077 -2.915199 -10.830077 C -2.915199 -10.830077 4.138954 -3.336184 4.138954 -3.336184 C 4.138954 -3.336184 7.629386 10.82709 7.629386 10.82709 C 7.629386 10.82709 -7.624076 -1.961998 -7.624076 -1.961998 Z M -7.624076 -1.961998 " stroke="#38b6ff" stroke-width="2" stroke-opacity="1" stroke-miterlimit="4"/><path stroke-linecap="round" transform="matrix(0.426389, 0, 0, 0.426389, 247.686962, 218.805289)" fill-opacity="1" fill="#ffffff" fill-rule="nonzero" stroke-linejoin="round" d="M 8.402118 -1.558822 C 8.402118 -1.558822 4.902525 -10.4269 4.902525 -10.4269 C 4.902525 -10.4269 -3.177687 -2.933008 -3.177687 -2.933008 C -3.177687 -2.933008 -8.399593 10.424078 -8.399593 10.424078 C -8.399593 10.424078 8.402118 -1.558822 8.402118 -1.558822 Z M 8.402118 -1.558822 " stroke="#38b6ff" stroke-width="2" stroke-opacity="1" stroke-miterlimit="4"/><path stroke-linecap="round" transform="matrix(0.426389, 0, 0, 0.426389, 241.140619, 243.211783)" fill-opacity="1" fill="#5271ff" fill-rule="nonzero" stroke-linejoin="round" d="M 33.685887 -17.674012 C 33.685887 -17.674012 30.891709 49.761861 30.891709 49.761861 C 32.494926 60.865281 -37.69848 60.324768 -36.599131 46.921877 C -36.599131 46.921877 -26.796607 -21.311024 -26.796607 -21.311024 C -25.660613 -29.565299 -31.395548 -42.22613 -26.879058 -50.379632 C -24.176492 -55.271733 -15.601574 -55.317539 -5.744082 -60.869249 C -5.744082 -60.869249 4.452376 -48.803899 7.035845 -48.080161 C 9.371961 -47.420552 21.932018 -60.008093 21.932018 -60.008093 C 21.932018 -60.008093 34.162271 -58.936228 37.698509 -48.913834 C 37.698509 -48.913834 33.685887 -17.674012 33.685887 -17.674012 Z M 33.685887 -17.674012 " stroke="#38b6ff" stroke-width="2" stroke-opacity="1" stroke-miterlimit="4"/><path stroke-linecap="round" transform="matrix(0.426389, 0, 0, 0.426389, 225.345034, 189.575477)" fill-opacity="1" fill="#ffffff" fill-rule="nonzero" stroke-linejoin="round" d="M -16.401627 27.654827 C -18.417099 9.652994 8.324554 -20.011095 8.324554 -20.011095 C 8.324554 -20.011095 11.292796 -27.651567 11.292796 -27.651567 C 11.292796 -27.651567 17.10102 -20.753155 17.10102 -20.753155 C 17.10102 -20.753155 18.420239 -19.97445 16.074962 -14.550997 C 10.614864 -1.871843 2.021623 19.739517 -4.098084 24.402587 " stroke="#38b6ff" stroke-width="2" stroke-opacity="1" stroke-miterlimit="4"/><path stroke-linecap="round" transform="matrix(0.426389, 0, 0, 0.426389, 232.658033, 176.347191)" fill-opacity="1" fill="#ffffff" fill-rule="nonzero" stroke-linejoin="round" d="M -7.195753 6.817052 C -7.195753 6.817052 -0.718758 -9.141825 -0.718758 -9.141825 C -0.718758 -9.141825 7.196552 -5.239137 7.196552 -5.239137 C 7.196552 -5.239137 4.090892 6.111637 -3.348033 9.144007 " stroke="#38b6ff" stroke-width="2" stroke-opacity="1" stroke-miterlimit="4"/><path stroke-linecap="round" transform="matrix(0.426389, 0, 0, 0.426389, 221.665728, 198.967541)" fill-opacity="1" fill="#ffffff" fill-rule="nonzero" stroke-linejoin="round" d="M -14.185503 0.00283659 C -14.185503 0.00283659 -11.226423 9.328977 -11.226423 9.328977 C -11.226423 9.328977 10.275002 1.111346 10.275002 1.111346 C 10.275002 1.111346 14.186851 -9.332465 14.186851 -9.332465 C 14.186851 -9.332465 -14.185503 0.00283659 -14.185503 0.00283659 Z M -14.185503 0.00283659 " stroke="#38b6ff" stroke-width="2" stroke-opacity="1" stroke-miterlimit="4"/><path stroke-linecap="round" transform="matrix(0.426389, 0, 0, 0.426389, 227.686339, 216.995694)" fill-opacity="1" fill="#5271ff" fill-rule="nonzero" stroke-linejoin="round" d="M 25.351868 3.528014 C 14.679025 -8.49153 -3.854159 -41.169666 -3.854159 -41.169666 C -3.854159 -41.169666 -25.346423 -32.952036 -25.346423 -32.952036 C -25.346423 -32.952036 5.297918 37.16808 5.297918 37.16808 " stroke="#38b6ff" stroke-width="2" stroke-opacity="1" stroke-miterlimit="4"/><path stroke-linecap="round" transform="matrix(0.426389, 0, 0, 0.426389, 270.948183, 199.295006)" fill-opacity="1" fill="#ffffff" fill-rule="nonzero" stroke-linejoin="round" d="M 12.80984 4.630808 C 12.80984 4.630808 7.56045 10.109229 7.56045 10.109229 C 7.56045 10.109229 -12.804982 1.891598 -12.804982 1.891598 C -12.804982 1.891598 -6.978435 -10.109624 -6.978435 -10.109624 C -6.978435 -10.109624 6.589359 -2.487474 12.80984 4.630808 Z M 12.80984 4.630808 " stroke="#38b6ff" stroke-width="2" stroke-opacity="1" stroke-miterlimit="4"/><path stroke-linecap="round" transform="matrix(0.426389, 0, 0, 0.426389, 262.722294, 217.112531)" fill-opacity="1" fill="#5271ff" fill-rule="nonzero" stroke-linejoin="round" d="M -26.8599 2.411165 C -26.8599 2.411165 6.487006 -39.895432 6.487006 -39.895432 C 6.487006 -39.895432 26.852439 -31.66864 26.852439 -31.66864 C 26.852439 -31.66864 -17.98266 39.898951 -17.98266 39.898951 " stroke="#38b6ff" stroke-width="2" stroke-opacity="1" stroke-miterlimit="4"/><path fill="#ffffff" d="M 305.699219 91.691406 C 305.671875 91.699219 305.640625 91.710938 305.609375 91.71875 C 305.609375 91.71875 299.738281 67.710938 299.738281 67.710938 C 203.699219 93.410156 226.421875 187.789062 226.421875 187.789062 C 226.421875 187.789062 249.054688 182.253906 249.054688 182.253906 C 252.347656 195.710938 265.925781 203.949219 279.382812 200.65625 C 292.835938 197.367188 301.078125 183.789062 297.785156 170.332031 C 297.785156 170.332031 323.316406 164.085938 323.316406 164.085938 C 323.316406 164.085938 317.53125 140.441406 317.53125 140.441406 C 317.5625 140.4375 317.589844 140.429688 317.621094 140.421875 C 331.078125 137.132812 339.316406 123.554688 336.027344 110.097656 C 332.734375 96.640625 319.15625 88.402344 305.699219 91.691406 Z M 305.699219 91.691406 " fill-opacity="1" fill-rule="nonzero"/><g clip-path="url(#cff93fb562)"><path stroke-linecap="butt" transform="matrix(0.426389, 0, 0, 0.426389, 271.509305, 135.829584)" fill="none" stroke-linejoin="miter" d="M 80.184815 -103.51625 C 80.120686 -103.497927 80.047396 -103.470444 79.974106 -103.452121 C 79.974106 -103.452121 66.204766 -159.75709 66.204766 -159.75709 C -159.033432 -99.485305 -105.742511 121.859366 -105.742511 121.859366 C -105.742511 121.859366 -52.662298 108.877892 -52.662298 108.877892 C -44.939374 140.438357 -13.094911 159.759408 18.465554 152.036484 C 50.016858 144.322722 69.34707 112.478259 61.624147 80.917794 C 61.624147 80.917794 121.501998 66.268974 121.501998 66.268974 C 121.501998 66.268974 107.934205 10.816 107.934205 10.816 C 108.007495 10.806839 108.071623 10.788517 108.144913 10.770194 C 139.705378 3.056432 159.026429 -28.788031 151.312667 -60.348496 C 143.589743 -91.908961 111.74528 -111.230012 80.184815 -103.51625 Z M 80.184815 -103.51625 " stroke="#38b6ff" stroke-width="5" stroke-opacity="1" stroke-miterlimit="10"/></g><path stroke-linecap="round" transform="matrix(0.426389, 0.0000355272, -0.0000355272, 0.426389, 294.235065, 351.364753)" fill-opacity="1" fill="#ffffff" fill-rule="nonzero" stroke-linejoin="miter" d="M -13.945156 -1.587183 C -13.945156 -1.587183 7.967326 -15.990475 7.967326 -15.990475 C 7.967326 -15.990475 15.709434 -5.648082 15.709434 -5.648082 C 15.709434 -5.648082 -7.219342 15.992672 -7.219342 15.992672 C -7.219342 15.992672 -15.711926 14.600872 -13.945156 -1.587183 Z M -13.945156 -1.587183 " stroke="#38b6ff" stroke-width="2" stroke-opacity="1" stroke-miterlimit="10"/><path stroke-linecap="round" transform="matrix(0.426389, 0.0000355272, -0.0000355272, 0.426389, 286.17948, 359.749867)" fill-opacity="1" fill="#5271ff" fill-rule="nonzero" stroke-linejoin="miter" d="M -20.731964 -6.823084 C -20.731964 -6.823084 4.945784 -21.254173 4.945784 -21.254173 C 4.945784 -21.254173 20.732336 -0.386188 20.732336 -0.386188 C 20.732336 -0.386188 -9.836913 21.246042 -9.836913 21.246042 " stroke="#38b6ff" stroke-width="2" stroke-opacity="1" stroke-miterlimit="10"/><path stroke-linecap="round" transform="matrix(0.426389, 0.0000355272, -0.0000355272, 0.426389, 306.217809, 341.940855)" fill-opacity="1" fill="#ffffff" fill-rule="nonzero" stroke-linejoin="miter" d="M -20.335234 6.086048 C -20.335234 6.086048 18.487992 -19.128913 18.487992 -19.128913 C 18.487992 -19.128913 31.807803 -26.678883 36.25111 -25.39668 C 40.263829 -24.233537 38.221436 -17.472374 35.693212 -14.146633 C 32.569573 -10.023816 20.339163 -11.919173 20.339163 -11.919173 C 20.339163 -11.919173 -0.142779 19.120808 -17.48503 18.792448 " stroke="#38b6ff" stroke-width="2" stroke-opacity="1" stroke-miterlimit="10"/><path stroke-linecap="round" transform="matrix(0.426389, 0.0000355272, -0.0000355272, 0.426389, 274.276249, 356.365932)" fill-opacity="1" fill="#ffffff" fill-rule="nonzero" stroke-linejoin="miter" d="M -3.086994 -26.701808 C -3.086994 -26.701808 -7.180177 -4.018242 -15.497812 5.216979 C -23.824607 14.452201 -1.048749 26.698879 11.391765 21.329357 C 23.823118 15.968997 10.57447 -2.004249 10.57447 -2.004249 C 10.57447 -2.004249 4.381529 -1.334962 11.535178 -16.671471 " stroke="#38b6ff" stroke-width="2" stroke-opacity="1" stroke-miterlimit="10"/><path stroke-linecap="round" transform="matrix(0.426389, 0, 0, 0.426389, 281.800623, 412.281795)" fill-opacity="1" fill="#5271ff" fill-rule="nonzero" stroke-linejoin="miter" d="M -43.59796 -22.776115 C -43.59796 -22.776115 -32.439572 43.71615 12.285592 9.993633 C 43.598704 -13.624039 15.446219 -43.718706 15.446219 -43.718706 C 15.446219 -43.718706 -43.59796 -22.776115 -43.59796 -22.776115 Z M -43.59796 -22.776115 " stroke="#38b6ff" stroke-width="2" stroke-opacity="1" stroke-miterlimit="10"/><path stroke-linecap="round" transform="matrix(0.426389, 0, 0, 0.426389, 314.015584, 482.843616)" fill-opacity="1" fill="#ffffff" fill-rule="nonzero" stroke-linejoin="miter" d="M -3.581947 -42.663571 C -3.581947 -42.663571 20.970171 36.187205 20.970171 36.187205 C 20.970171 36.187205 19.26618 42.6642 12.917442 42.645877 C 6.422125 42.618394 7.49399 36.517009 7.49399 36.517009 C 7.49399 36.517009 -20.969977 -37.240118 -20.969977 -37.240118 C -20.969977 -37.240118 -3.581947 -42.663571 -3.581947 -42.663571 Z M -3.581947 -42.663571 " stroke="#38b6ff" stroke-width="2" stroke-opacity="1" stroke-miterlimit="10"/><path stroke-linecap="round" transform="matrix(0.426389, 0, 0, 0.426389, 302.236598, 448.450225)" fill-opacity="1" fill="#5271ff" fill-rule="nonzero" stroke-linejoin="miter" d="M -51.216534 -70.470603 C -51.216534 -70.470603 29.081718 107.926184 29.081718 107.926184 C 29.081718 107.926184 51.215269 107.294059 51.215269 107.294059 C 51.215269 107.294059 -21.744831 -107.921744 -21.744831 -107.921744 " stroke="#38b6ff" stroke-width="2" stroke-opacity="1" stroke-miterlimit="10"/><path stroke-linecap="round" transform="matrix(0.426389, 0, 0, 0.426389, 253.422323, 478.928928)" fill-opacity="1" fill="#ffffff" fill-rule="nonzero" stroke-linejoin="miter" d="M 41.22452 -51.850826 C 41.22452 -51.850826 -26.678576 45.368232 -26.678576 45.368232 C -26.678576 45.368232 -28.382566 51.845227 -34.731304 51.826905 C -41.217461 51.799421 -40.154757 45.698036 -40.154757 45.698036 C -40.154757 45.698036 23.076108 -51.356119 23.076108 -51.356119 C 23.076108 -51.356119 41.22452 -51.850826 41.22452 -51.850826 Z M 41.22452 -51.850826 " stroke="#38b6ff" stroke-width="2" stroke-opacity="1" stroke-miterlimit="10"/><path fill="#5271ff" d="M 236.40625 497.953125 C 236.40625 497.953125 233.726562 506.476562 233.726562 506.476562 C 233.726562 506.476562 251.453125 506.628906 251.453125 506.628906 C 251.453125 506.628906 252.914062 504.511719 252.136719 503.839844 C 251.359375 503.167969 242.359375 497.816406 242.359375 497.816406 C 242.359375 497.816406 241.792969 499.707031 238.800781 499.980469 C 236.074219 500.226562 236.40625 497.953125 236.40625 497.953125 Z M 236.40625 497.953125 " fill-opacity="1" fill-rule="nonzero"/><g clip-path="url(#541fe8380a)"><path stroke-linecap="round" transform="matrix(0.426389, 0, 0, 0.426389, 243.321583, 502.222151)" fill="none" stroke-linejoin="miter" d="M -16.21837 -10.012048 C -16.21837 -10.012048 -22.502979 9.977773 -22.502979 9.977773 C -22.502979 9.977773 19.070719 10.335061 19.070719 10.335061 C 19.070719 10.335061 22.497022 5.36967 20.673935 3.793937 C 18.850849 2.218204 -2.256643 -10.332692 -2.256643 -10.332692 C -2.256643 -10.332692 -3.585023 -5.898653 -10.602531 -5.257366 C -16.997075 -4.680208 -16.21837 -10.012048 -16.21837 -10.012048 Z M -16.21837 -10.012048 " stroke="#38b6ff" stroke-width="2" stroke-opacity="1" stroke-miterlimit="10"/></g><path stroke-linecap="round" transform="matrix(0.426389, 0, 0, 0.426389, 244.123202, 499.191791)" fill-opacity="1" fill="#5271ff" fill-rule="nonzero" stroke-linejoin="miter" d="M -4.869561 -2.153794 C -4.869561 -2.153794 -3.513698 -5.570936 -3.513698 -5.570936 C -3.513698 -5.570936 6.279665 -0.0375478 5.858248 2.765791 C 5.445993 5.56913 -6.280392 2.179472 -4.869561 -2.153794 Z M -4.869561 -2.153794 " stroke="#38b6ff" stroke-width="2" stroke-opacity="1" stroke-miterlimit="10"/><path fill="#ffffff" d="M 234.40625 504.429688 C 234.40625 504.429688 233.726562 506.476562 233.726562 506.476562 C 233.726562 506.476562 251.453125 506.628906 251.453125 506.628906 C 251.453125 506.628906 252.210938 505.246094 252.210938 505.246094 C 252.210938 505.246094 234.40625 504.429688 234.40625 504.429688 Z M 234.40625 504.429688 " fill-opacity="1" fill-rule="nonzero"/><g clip-path="url(#c52ea0dfbb)"><path stroke-linecap="round" transform="matrix(0.426389, 0, 0, 0.426389, 242.969815, 505.530527)" fill="none" stroke-linejoin="miter" d="M -20.083931 -2.581773 C -20.083931 -2.581773 -21.677986 2.218715 -21.677986 2.218715 C -21.677986 2.218715 19.895712 2.576004 19.895712 2.576004 C 19.895712 2.576004 21.672992 -0.667075 21.672992 -0.667075 C 21.672992 -0.667075 -20.083931 -2.581773 -20.083931 -2.581773 Z M -20.083931 -2.581773 " stroke="#38b6ff" stroke-width="2" stroke-opacity="1" stroke-miterlimit="10"/></g><path fill="#5271ff" d="M 316.816406 497.953125 C 316.816406 497.953125 314.636719 506.476562 314.636719 506.476562 C 314.636719 506.476562 332.363281 506.628906 332.363281 506.628906 C 332.363281 506.628906 333.824219 504.511719 333.046875 503.839844 C 332.269531 503.167969 323.265625 497.816406 323.265625 497.816406 C 323.265625 497.816406 322.703125 499.707031 319.710938 499.980469 C 316.984375 500.226562 316.816406 497.953125 316.816406 497.953125 Z M 316.816406 497.953125 " fill-opacity="1" fill-rule="nonzero"/><g clip-path="url(#76f01cf7ed)"><path stroke-linecap="round" transform="matrix(0.426389, 0, 0, 0.426389, 324.230583, 502.222151)" fill="none" stroke-linejoin="miter" d="M -17.388298 -10.012048 C -17.388298 -10.012048 -22.500269 9.977773 -22.500269 9.977773 C -22.500269 9.977773 19.073429 10.335061 19.073429 10.335061 C 19.073429 10.335061 22.499732 5.36967 20.676646 3.793937 C 18.853559 2.218204 -2.263094 -10.332692 -2.263094 -10.332692 C -2.263094 -10.332692 -3.582313 -5.898653 -10.599821 -5.257366 C -16.994365 -4.680208 -17.388298 -10.012048 -17.388298 -10.012048 Z M -17.388298 -10.012048 " stroke="#38b6ff" stroke-width="2" stroke-opacity="1" stroke-miterlimit="10"/></g><path stroke-linecap="round" transform="matrix(0.426389, 0, 0, 0.426389, 325.032202, 499.191791)" fill-opacity="1" fill="#5271ff" fill-rule="nonzero" stroke-linejoin="miter" d="M -4.866851 -2.153794 C -4.866851 -2.153794 -3.520149 -5.570936 -3.520149 -5.570936 C -3.520149 -5.570936 6.273214 -0.0375478 5.860959 2.765791 C 5.439542 5.56913 -6.277682 2.179472 -4.866851 -2.153794 Z M -4.866851 -2.153794 " stroke="#38b6ff" stroke-width="2" stroke-opacity="1" stroke-miterlimit="10"/><path fill="#ffffff" d="M 315.316406 504.429688 C 315.316406 504.429688 314.636719 506.476562 314.636719 506.476562 C 314.636719 506.476562 332.363281 506.628906 332.363281 506.628906 C 332.363281 506.628906 333.121094 505.246094 333.121094 505.246094 C 333.121094 505.246094 315.316406 504.429688 315.316406 504.429688 Z M 315.316406 504.429688 " fill-opacity="1" fill-rule="nonzero"/><g clip-path="url(#8cc464d7d9)"><path stroke-linecap="round" transform="matrix(0.426389, 0, 0, 0.426389, 323.878815, 505.530527)" fill="none" stroke-linejoin="miter" d="M -20.08122 -2.581773 C -20.08122 -2.581773 -21.675276 2.218715 -21.675276 2.218715 C -21.675276 2.218715 19.898422 2.576004 19.898422 2.576004 C 19.898422 2.576004 21.675702 -0.667075 21.675702 -0.667075 C 21.675702 -0.667075 -20.08122 -2.581773 -20.08122 -2.581773 Z M -20.08122 -2.581773 " stroke="#38b6ff" stroke-width="2" stroke-opacity="1" stroke-miterlimit="10"/></g><path stroke-linecap="round" transform="matrix(0.426389, 0, 0, 0.426389, 260.968554, 452.762305)" fill-opacity="1" fill="#5271ff" fill-rule="nonzero" stroke-linejoin="miter" d="M 13.091869 -94.362127 C 13.091869 -94.362127 5.185721 8.564382 5.185721 8.564382 C 5.185721 8.564382 -53.858458 97.813163 -53.858458 97.813163 C -53.858458 97.813163 -35.66424 97.813163 -35.66424 97.813163 C -35.66424 97.813163 34.26349 17.780588 34.26349 17.780588 C 34.26349 17.780588 53.859378 -97.806752 53.859378 -97.806752 " stroke="#38b6ff" stroke-width="2" stroke-opacity="1" stroke-miterlimit="10"/><path stroke-linecap="round" transform="matrix(0.426389, 0.0000355272, -0.0000355272, 0.426389, 276.054363, 381.061646)" fill-opacity="1" fill="#5271ff" fill-rule="nonzero" stroke-linejoin="round" d="M -15.028845 -62.119099 C -15.028845 -62.119099 0.554834 -57.164168 3.010075 -56.807084 C 5.236284 -56.477465 5.840517 -61.378778 5.840517 -61.378778 C 5.840517 -61.378778 31.420433 -40.502448 23.242311 -6.128801 C 20.696377 4.553414 24.077389 10.727807 27.908175 27.39178 C 30.281795 37.716297 -30.38161 65.470742 -30.42849 52.590045 C -30.447257 47.249045 -28.735768 27.295726 -26.549892 -16.632593 C -25.909667 -29.375928 -31.417354 -50.76696 -15.028845 -62.119099 Z M -15.028845 -62.119099 " stroke="#38b6ff" stroke-width="2" stroke-opacity="1" stroke-miterlimit="4"/><path stroke-linecap="round" transform="matrix(0.426389, 0.0000262592, -0.0000262592, 0.426389, 291.521354, 357.051041)" fill-opacity="1" fill="#ffffff" fill-rule="nonzero" stroke-linejoin="miter" d="M -27.798279 19.36796 C -27.798279 19.36796 28.239953 2.141381 28.761481 -8.613944 C 29.273848 -19.369269 -29.274308 1.989182 -29.274308 1.989182 C -29.274308 1.989182 -27.798279 19.36796 -27.798279 19.36796 Z M -27.798279 19.36796 " stroke="#38b6ff" stroke-width="2" stroke-opacity="1" stroke-miterlimit="10"/><path stroke-linecap="round" transform="matrix(0.426389, 0.0000262592, -0.0000262592, 0.426389, 278.122606, 362.570249)" fill-opacity="1" fill="#5271ff" fill-rule="nonzero" stroke-linejoin="miter" d="M -20.129724 17.261161 C -20.129724 17.261161 12.832017 10.864587 12.832017 10.864587 C 12.832017 10.864587 20.132433 -6.844535 12.042418 -17.260365 C 12.042418 -17.260365 -18.500515 -6.961252 -18.500515 -6.961252 " stroke="#38b6ff" stroke-width="2" stroke-opacity="1" stroke-miterlimit="10"/><path stroke-linecap="round" transform="matrix(0.426389, 0.0000571524, -0.0000571524, 0.426389, 274.174265, 342.276363)" fill-opacity="1" fill="#ffffff" fill-rule="nonzero" stroke-linejoin="round" d="M 14.046172 -11.643517 C 23.34631 -0.59631 22.780299 14.217487 22.780299 14.217487 C 16.963568 19.110368 -3.52942 24.344182 -12.820397 13.287813 C -22.111373 2.240605 -23.340527 -9.311551 -14.409329 -16.834125 C -5.468967 -24.347538 4.755195 -22.699886 14.046172 -11.643517 Z M 14.046172 -11.643517 " stroke="#38b6ff" stroke-width="2" stroke-opacity="1" stroke-miterlimit="4"/><path stroke-linecap="round" transform="matrix(0.426389, 0.0000571524, -0.0000571524, 0.426389, 271.726249, 339.964547)" fill-opacity="1" fill="#38b6ff" fill-rule="nonzero" stroke-linejoin="miter" d="M 4.198565 14.786372 C 0.266735 2.410067 7.026982 -3.160872 7.026982 -3.160872 C 7.026982 -3.160872 23.755031 -5.929808 23.488599 -11.573095 C 23.488599 -11.573095 12.337078 -28.693954 -2.45681 -17.414487 C -2.45681 -17.414487 -23.755892 -11.47515 -16.946271 9.576462 C -16.946271 9.576462 -10.695744 28.695128 -0.56373 26.339332 C 9.568283 23.983535 6.608134 16.004494 6.608134 16.004494 " stroke="#38b6ff" stroke-width="2" stroke-opacity="1" stroke-miterlimit="10"/><path stroke-linecap="round" transform="matrix(0.426389, 0.0000571524, -0.0000571524, 0.426389, 282.298963, 340.331403)" fill-opacity="1" fill="#ffffff" fill-rule="nonzero" stroke-linejoin="round" d="M -4.439685 -5.577126 C -4.439685 -5.577126 -0.160593 0.34046 2.42291 0.596628 C 4.438409 0.797905 0.234041 5.571474 0.234041 5.571474 " stroke="#38b6ff" stroke-width="2" stroke-opacity="1" stroke-miterlimit="4"/><path stroke-linecap="round" transform="matrix(0.426389, 0.0000571524, -0.0000571524, 0.426389, 273.137919, 344.000542)" fill-opacity="1" fill="#ffffff" fill-rule="nonzero" stroke-linejoin="miter" d="M 3.596924 -4.683147 C 3.596924 -4.683147 -5.509751 -7.695974 -2.879444 -0.000886279 C -0.239976 7.6942 5.513088 6.245953 5.513088 6.245953 " stroke="#38b6ff" stroke-width="2" stroke-opacity="1" stroke-miterlimit="10"/><path stroke-linecap="round" transform="matrix(0.426389, 0.0000571524, -0.0000571524, 0.426389, 274.766444, 339.744087)" fill-opacity="1" fill="#38b6ff" fill-rule="nonzero" stroke-linejoin="miter" d="M -6.066735 -0.562478 C -6.066735 -0.562478 -0.65095 10.576861 4.406141 11.235793 C 4.406141 11.235793 -0.680127 -2.056482 2.690593 -6.646714 C 6.061313 -11.236946 -6.066735 -0.562478 -6.066735 -0.562478 Z M -6.066735 -0.562478 " stroke="#38b6ff" stroke-width="2" stroke-opacity="1" stroke-miterlimit="10"/><path stroke-linecap="round" transform="matrix(0.426389, 0, 0, 0.426389, 372.229614, 327.748072)" fill="none" stroke-linejoin="miter" d="M -44.860578 141.261651 C -44.860578 141.261651 23.537225 -80.953339 -19.126661 -111.102973 C -61.781385 -141.261768 -29.423892 -7.388597 16.180751 -26.040878 C 61.785394 -44.683997 58.102576 -113.420766 37.508113 -111.048005 C 16.91365 -108.666083 27.302494 70.060509 59.321021 138.806439 " stroke="#38b6ff" stroke-width="5" stroke-opacity="1" stroke-miterlimit="10"/><path stroke-linecap="round" transform="matrix(0.426389, 0, 0, 0.426389, 375.993793, 411.198747)" fill-opacity="1" fill="#38b6ff" fill-rule="nonzero" stroke-linejoin="miter" d="M 56.915006 0.0011067 C 56.915006 31.433314 31.428442 56.910717 -0.00376566 56.910717 C -31.435973 56.910717 -56.913376 31.433314 -56.913376 0.0011067 C -56.913376 -31.431101 -31.435973 -56.917665 -0.00376566 -56.917665 C 31.428442 -56.917665 56.915006 -31.431101 56.915006 0.0011067 Z M 56.915006 0.0011067 " stroke="#38b6ff" stroke-width="5" stroke-opacity="1" stroke-miterlimit="10"/><path stroke-linecap="round" transform="matrix(0.426389, 0, 0, 0.426389, 375.018618, 387.979341)" fill-opacity="1" fill="#5271ff" fill-rule="nonzero" stroke-linejoin="miter" d="M 73.576044 17.024226 C 73.576044 17.024226 -73.571761 17.024226 -73.571761 17.024226 C -79.773919 17.024226 -84.794277 12.003868 -84.794277 5.801709 C -84.794277 5.801709 -84.794277 -5.805579 -84.794277 -5.805579 C -84.794277 -11.998576 -79.773919 -17.028096 -73.571761 -17.028096 C -73.571761 -17.028096 73.576044 -17.028096 73.576044 -17.028096 C 79.769041 -17.028096 84.798561 -11.998576 84.798561 -5.805579 C 84.798561 -5.805579 84.798561 5.801709 84.798561 5.801709 C 84.798561 12.003868 79.769041 17.024226 73.576044 17.024226 Z M 73.576044 17.024226 " stroke="#38b6ff" stroke-width="5" stroke-opacity="1" stroke-miterlimit="10"/><path stroke-linecap="round" transform="matrix(0.426389, 0, 0, 0.426389, 375.018618, 402.166585)" fill-opacity="1" fill="#5271ff" fill-rule="nonzero" stroke-linejoin="miter" d="M 73.576044 17.024826 C 73.576044 17.024826 -73.571761 17.024826 -73.571761 17.024826 C -79.773919 17.024826 -84.794277 12.004467 -84.794277 5.802309 C -84.794277 5.802309 -84.794277 -5.804979 -84.794277 -5.804979 C -84.794277 -11.997976 -79.773919 -17.027496 -73.571761 -17.027496 C -73.571761 -17.027496 73.576044 -17.027496 73.576044 -17.027496 C 79.769041 -17.027496 84.798561 -11.997976 84.798561 -5.804979 C 84.798561 -5.804979 84.798561 5.802309 84.798561 5.802309 C 84.798561 12.004467 79.769041 17.024826 73.576044 17.024826 Z M 73.576044 17.024826 " stroke="#38b6ff" stroke-width="5" stroke-opacity="1" stroke-miterlimit="10"/><path stroke-linecap="round" transform="matrix(0.426389, 0, 0, 0.426389, 375.018618, 416.684235)" fill-opacity="1" fill="#5271ff" fill-rule="nonzero" stroke-linejoin="miter" d="M 73.576044 17.020077 C 73.576044 17.020077 -73.571761 17.020077 -73.571761 17.020077 C -79.773919 17.020077 -84.794277 11.999719 -84.794277 5.806722 C -84.794277 5.806722 -84.794277 -5.800567 -84.794277 -5.800567 C -84.794277 -12.002725 -79.773919 -17.023083 -73.571761 -17.023083 C -73.571761 -17.023083 73.576044 -17.023083 73.576044 -17.023083 C 79.769041 -17.023083 84.798561 -12.002725 84.798561 -5.800567 C 84.798561 -5.800567 84.798561 5.806722 84.798561 5.806722 C 84.798561 11.999719 79.769041 17.020077 73.576044 17.020077 Z M 73.576044 17.020077 " stroke="#38b6ff" stroke-width="5" stroke-opacity="1" stroke-miterlimit="10"/><path stroke-linecap="butt" transform="matrix(0.426389, 0.0000262592, -0.0000262592, 0.426389, 288.187692, 307.061052)" fill-opacity="1" fill="#ffffff" fill-rule="nonzero" stroke-linejoin="miter" d="M 46.381492 -22.820104 C 36.751125 -53.775335 53.972227 -86.66524 84.863322 -96.405538 C 84.863322 -96.405538 62.679574 -167.687765 62.679574 -167.687765 C 62.679574 -167.687765 3.819749 -149.361664 3.819749 -149.361664 C 3.819749 -149.361664 19.772953 -92.718712 -34.863624 -75.712089 C -88.043591 -59.163618 -108.513198 -114.395462 -108.513198 -114.395462 C -108.513198 -114.395462 -160.69461 -98.158534 -160.69461 -98.158534 C -116.547793 31.28704 -10.84383 57.261801 -10.84383 57.261801 C 32.617948 71.303303 63.694107 91.428629 74.36839 114.816612 C 85.574095 139.358879 95.002754 167.684846 95.002754 167.684846 C 95.002754 167.684846 160.696732 147.232917 160.696732 147.232917 C 160.696732 147.232917 119.829523 15.918248 119.829523 15.918248 C 88.865125 25.42952 56.021021 8.125964 46.381492 -22.820104 Z M 46.381492 -22.820104 " stroke="#38b6ff" stroke-width="5" stroke-opacity="1" stroke-miterlimit="10"/><path stroke-linecap="round" transform="matrix(0.426389, 0.0000540631, -0.0000540631, 0.426389, 305.242194, 346.001989)" fill-opacity="1" fill="#ffffff" fill-rule="nonzero" stroke-linejoin="miter" d="M -15.828776 14.664485 C -15.828776 14.664485 11.265092 -25.355238 11.265092 -25.355238 C 11.265092 -25.355238 15.828133 -19.483463 15.828133 -19.483463 C 15.828133 -19.483463 4.995237 18.756918 -11.036093 25.355042 " stroke="#38b6ff" stroke-width="2" stroke-opacity="1" stroke-miterlimit="10"/><path stroke-linecap="round" transform="matrix(0.426389, 0.0000540631, -0.0000540631, 0.426389, 313.679637, 335.333531)" fill-opacity="1" fill="#ffffff" fill-rule="nonzero" stroke-linejoin="miter" d="M -11.350276 2.984486 C -11.350276 2.984486 -3.839549 -8.752012 -3.839549 -8.752012 C -3.839549 -8.752012 7.96008 -9.110797 7.96008 -9.110797 C 7.96008 -9.110797 11.352042 9.055508 -9.315704 9.113096 " stroke="#38b6ff" stroke-width="2" stroke-opacity="1" stroke-miterlimit="10"/><path stroke-linecap="round" transform="matrix(0.426389, -0.0000154466, 0.0000154466, 0.426389, 459.642197, 332.741697)" fill-opacity="1" fill="#ffffff" fill-rule="nonzero" stroke-linejoin="miter" d="M -5.004843 -24.285472 C -5.004843 -24.285472 3.917554 -6.356606 12.3639 2.346876 C 20.819407 11.05952 3.824832 24.278571 -8.49686 19.495958 C -20.818552 14.713346 -11.116271 0.0740386 -11.116271 0.0740386 C -11.116271 0.0740386 -10.648948 -2.674316 -18.169792 -17.378375 " stroke="#38b6ff" stroke-width="2" stroke-opacity="1" stroke-miterlimit="10"/><path stroke-linecap="round" transform="matrix(0.426389, 0, 0, 0.426389, 456.884429, 460.140529)" fill-opacity="1" fill="#ffffff" fill-rule="nonzero" stroke-linejoin="miter" d="M 34.048531 -88.588946 C 34.048531 -88.588946 -8.477936 10.334102 -8.477936 10.334102 C -8.477936 10.334102 -18.967554 94.938135 -18.967554 94.938135 C -18.967554 94.938135 -34.046952 95.451164 -34.046952 95.451164 C -34.046952 95.451164 -32.214704 6.577994 -32.214704 6.577994 C -32.214704 6.577994 -9.824638 -95.450713 -9.824638 -95.450713 " stroke="#38b6ff" stroke-width="2" stroke-opacity="1" stroke-miterlimit="10"/><path stroke-linecap="round" transform="matrix(0.426389, 0, 0, 0.426389, 484.476892, 455.045617)" fill-opacity="1" fill="#ffffff" fill-rule="nonzero" stroke-linejoin="miter" d="M -30.663436 -99.781254 C -30.663436 -99.781254 -12.918118 18.27962 -12.918118 18.27962 C -12.918118 18.27962 15.582494 106.887114 15.582494 106.887114 C 15.582494 106.887114 30.661891 107.400144 30.661891 107.400144 C 30.661891 107.400144 12.8158 18.526974 12.8158 18.526974 C 12.8158 18.526974 9.068853 -107.403404 9.068853 -107.403404 " stroke="#38b6ff" stroke-width="2" stroke-opacity="1" stroke-miterlimit="10"/><path stroke-linecap="round" transform="matrix(0.426389, 0, 0, 0.426389, 473.957908, 414.894267)" fill-opacity="1" fill="#5271ff" fill-rule="nonzero" stroke-linejoin="miter" d="M -44.479867 -83.275033 C -44.479867 -83.275033 -71.908614 56.516298 -71.908614 56.516298 C -71.908614 56.516298 -57.800307 89.826559 47.434834 74.197487 C 70.374574 70.789507 71.9045 49.80111 71.9045 49.80111 C 55.331821 -31.770553 15.113986 -89.825318 15.113986 -89.825318 " stroke="#38b6ff" stroke-width="2" stroke-opacity="1" stroke-miterlimit="10"/><path stroke-linecap="round" transform="matrix(0.426389, 0, 0, 0.426389, 443.004174, 502.055399)" fill-opacity="1" fill="#ffffff" fill-rule="nonzero" stroke-linejoin="miter" d="M -1.374813 -8.365879 C -1.374813 -8.365879 -12.047655 -1.366693 -16.637435 2.041287 C -16.637435 2.041287 4.653282 8.362541 15.005481 -1.650692 C 15.005481 -1.650692 16.636181 5.046173 14.748966 -7.339821 " stroke="#38b6ff" stroke-width="2" stroke-opacity="1" stroke-miterlimit="10"/><path stroke-linecap="round" transform="matrix(0.426389, 0, 0, 0.426389, 441.578766, 503.837759)" fill-opacity="1" fill="#5271ff" fill-rule="nonzero" stroke-linejoin="round" d="M 22.43437 -3.403091 C 21.820567 -5.757529 18.870648 -9.742668 18.870648 -9.742668 C 20.464703 -0.782977 2.490354 -3.412252 -14.696128 -2.056389 C -24.645233 -1.268523 -22.144215 9.743285 -22.144215 9.743285 C -22.144215 9.743285 -18.827847 9.532577 -3.501095 9.514254 C -3.501095 9.514254 23.075656 8.359938 23.075656 8.359938 C 23.075656 8.359938 24.651389 5.04357 22.43437 -3.403091 Z M 22.43437 -3.403091 " stroke="#38b6ff" stroke-width="2" stroke-opacity="1" stroke-miterlimit="4"/><path stroke-linecap="round" transform="matrix(0.426389, 0, 0, 0.426389, 491.140492, 502.055399)" fill-opacity="1" fill="#ffffff" fill-rule="nonzero" stroke-linejoin="miter" d="M -1.373873 -8.365879 C -1.373873 -8.365879 -12.046715 -1.366693 -16.636495 2.041287 C -16.636495 2.041287 4.654222 8.362541 15.006421 -1.650692 C 15.006421 -1.650692 16.637121 5.046173 14.749906 -7.339821 " stroke="#38b6ff" stroke-width="2" stroke-opacity="1" stroke-miterlimit="10"/><path stroke-linecap="round" transform="matrix(0.426389, 0, 0, 0.426389, 489.715108, 503.837759)" fill-opacity="1" fill="#5271ff" fill-rule="nonzero" stroke-linejoin="round" d="M 22.435253 -3.403091 C 21.82145 -5.757529 18.871532 -9.742668 18.871532 -9.742668 C 20.465587 -0.782977 2.491238 -3.412252 -14.695245 -2.056389 C -24.644349 -1.268523 -22.143331 9.743285 -22.143331 9.743285 C -22.143331 9.743285 -18.826963 9.532577 -3.500212 9.514254 C -3.500212 9.514254 23.07654 8.359938 23.07654 8.359938 C 23.07654 8.359938 24.652273 5.04357 22.435253 -3.403091 Z M 22.435253 -3.403091 " stroke="#38b6ff" stroke-width="2" stroke-opacity="1" stroke-miterlimit="4"/><path stroke-linecap="round" transform="matrix(0.426389, -0.0000154466, 0.0000154466, 0.426389, 462.172517, 358.973033)" fill-opacity="1" fill="#5271ff" fill-rule="nonzero" stroke-linejoin="round" d="M 6.431828 -59.173087 C 6.431828 -59.173087 -12.889241 -58.697403 -15.197884 -58.376843 C -17.286656 -58.102081 -17.625529 -60.676402 -17.625529 -60.676402 C -17.625529 -60.676402 -45.366796 -32.002732 -23.170101 -4.838857 C -8.750951 12.797049 -16.98773 35.599072 -17.318095 51.081552 C -17.529151 60.673361 46.627157 56.287452 44.071605 44.331944 C 43.009082 39.357353 35.103552 22.280519 27.592768 -17.241334 C 23.44352 -39.127682 24.598173 -48.426297 6.431828 -59.173087 Z M 6.431828 -59.173087 " stroke="#38b6ff" stroke-width="2" stroke-opacity="1" stroke-miterlimit="4"/><path stroke-linecap="butt" transform="matrix(0.426389, -0.0000270316, 0.0000270316, 0.426389, 450.164669, 278.482244)" fill-opacity="1" fill="#ffffff" fill-rule="nonzero" stroke-linejoin="miter" d="M 98.260401 -119.029901 C 98.260401 -119.029901 81.519826 -71.823102 35.192352 -86.126732 C -10.722873 -100.3204 0.795898 -149.139908 0.795898 -149.139908 C 0.795898 -149.139908 -59.355612 -167.722712 -59.355612 -167.722712 C -59.355612 -167.722712 -81.310444 -96.651219 -81.310444 -96.651219 C -112.238178 -106.208351 -145.054831 -88.88653 -154.611963 -57.958797 C -164.159933 -27.031062 -146.838113 5.78559 -115.910379 15.342722 C -115.910379 15.342722 -156.713744 147.408543 -156.713744 147.408543 C -156.713744 147.408543 -90.973988 167.723175 -90.973988 167.723175 C -90.973988 167.723175 -81.600245 139.378899 -70.449461 114.809165 C -59.830101 91.393714 -28.790547 71.204313 14.634617 57.071276 C 14.634617 57.071276 120.283675 30.876833 164.165056 -98.669452 C 164.165056 -98.669452 98.260401 -119.029901 98.260401 -119.029901 Z M 98.260401 -119.029901 " stroke="#38b6ff" stroke-width="5" stroke-opacity="1" stroke-miterlimit="10"/><path stroke-linecap="round" transform="matrix(0.426389, -0.0000556078, 0.0000556078, 0.426389, 458.086589, 318.954499)" fill-opacity="1" fill="#ffffff" fill-rule="nonzero" stroke-linejoin="round" d="M -13.952704 -10.6504 C -22.593204 0.488539 -21.477415 14.917634 -21.477415 14.917634 C -15.614816 19.462373 4.56683 23.770787 13.198168 12.641008 C 21.838667 1.511231 22.591364 -9.8028 13.59594 -16.793998 C 4.591353 -23.776036 -5.312205 -21.780177 -13.952704 -10.6504 Z M -13.952704 -10.6504 " stroke="#38b6ff" stroke-width="2" stroke-opacity="1" stroke-miterlimit="4"/><path stroke-linecap="round" transform="matrix(0.426389, -0.0000556078, 0.0000556078, 0.426389, 450.131261, 317.409002)" fill-opacity="1" fill="#ffffff" fill-rule="nonzero" stroke-linejoin="round" d="M 4.209368 -5.530132 C 4.209368 -5.530132 0.2601 0.405835 -2.250125 0.753635 C -4.210665 1.028217 0.0853685 5.526945 0.0853685 5.526945 " stroke="#38b6ff" stroke-width="2" stroke-opacity="1" stroke-miterlimit="4"/><path stroke-linecap="round" transform="matrix(0.426389, -0.0000556078, 0.0000556078, 0.426389, 463.735061, 323.067986)" fill-opacity="1" fill="#38b6ff" fill-rule="nonzero" stroke-linejoin="miter" d="M -7.90673 -7.874239 C -7.90673 -7.874239 -10.965745 -14.296666 -16.324916 -15.479164 C -21.473383 -16.615829 -22.553991 -19.822404 -25.640819 -23.725494 C -30.119924 -29.406045 -21.790963 -40.105285 -4.229692 -33.800063 C 13.239971 -27.531498 19.43103 -12.671162 17.534024 -7.843437 C 17.259094 -7.128897 21.206515 1.09841 18.97912 10.405937 C 18.080828 14.171089 30.117995 19.531983 29.393409 26.036367 C 28.054303 38.037415 20.670894 33.831443 18.453882 33.776187 C 16.988088 33.739351 7.468732 40.10517 -0.931128 32.472763 C -24.445238 11.096528 -6.001238 -7.525863 -7.90673 -7.874239 Z M -7.90673 -7.874239 " stroke="#38b6ff" stroke-width="2" stroke-opacity="1" stroke-miterlimit="10"/><path stroke-linecap="round" transform="matrix(0.426389, -0.0000463398, 0.0000463398, 0.426389, 445.413989, 331.186384)" fill-opacity="1" fill="#ffffff" fill-rule="nonzero" stroke-linejoin="round" d="M 29.734631 26.857438 C 29.734631 26.857438 -32.284412 3.498702 -28.966547 -10.270278 C -24.970445 -26.851685 32.282723 15.195459 32.282723 15.195459 C 32.282723 15.195459 29.734631 26.857438 29.734631 26.857438 Z M 29.734631 26.857438 " stroke="#38b6ff" stroke-width="2" stroke-opacity="1" stroke-miterlimit="4"/><path stroke-linecap="round" transform="matrix(0.426389, -0.0000463398, 0.0000463398, 0.426389, 452.514965, 337.956685)" fill-opacity="1" fill="#5271ff" fill-rule="nonzero" stroke-linejoin="round" d="M 14.015769 22.749689 C 14.015769 22.749689 -25.439651 4.056475 -25.439651 4.056475 C -25.439651 4.056475 -27.608934 -13.707401 -18.455875 -22.748548 C -18.455875 -22.748548 27.613055 4.27295 27.613055 4.27295 " stroke="#38b6ff" stroke-width="2" stroke-opacity="1" stroke-miterlimit="4"/><path stroke-linecap="round" transform="matrix(0.426389, -0.0000463398, 0.0000463398, 0.426389, 434.281662, 317.81904)" fill-opacity="1" fill="#ffffff" fill-rule="nonzero" stroke-linejoin="round" d="M -2.303143 24.90298 C -2.303143 24.90298 -11.38612 -20.840069 -11.38612 -20.840069 C -11.38612 -20.840069 -5.348423 -24.897841 -5.348423 -24.897841 C -5.348423 -24.897841 11.384257 20.204752 11.384257 20.204752 " stroke="#38b6ff" stroke-width="2" stroke-opacity="1" stroke-miterlimit="4"/><path stroke-linecap="round" transform="matrix(0.426389, -0.0000463398, 0.0000463398, 0.426389, 429.544326, 304.745604)" fill-opacity="1" fill="#ffffff" fill-rule="nonzero" stroke-linejoin="round" d="M 7.755088 11.939084 C 7.755088 11.939084 8.443894 -3.827331 8.443894 -3.827331 C 8.443894 -3.827331 1.683879 -12.833563 1.683879 -12.833563 C 1.683879 -12.833563 -8.439836 -7.795982 -8.05597 0.540786 C -7.900579 3.756397 -1.882181 8.685797 0.655031 12.836114 " stroke="#38b6ff" stroke-width="2" stroke-opacity="1" stroke-miterlimit="4"/></svg>